<?xml version="1.0" encoding="UTF-8" standalone="no"?>
<svg
   xmlns:dc="http://purl.org/dc/elements/1.1/"
   xmlns:cc="http://creativecommons.org/ns#"
   xmlns:rdf="http://www.w3.org/1999/02/22-rdf-syntax-ns#"
   xmlns:svg="http://www.w3.org/2000/svg"
   xmlns="http://www.w3.org/2000/svg"
   xmlns:sodipodi="http://sodipodi.sourceforge.net/DTD/sodipodi-0.dtd"
   xmlns:inkscape="http://www.inkscape.org/namespaces/inkscape"
   width="118.3606mm"
   height="41.577671mm"
   viewBox="0 0 118.36058 41.577671"
   version="1.1"
   id="svg120"
   inkscape:version="1.0.2 (e86c870879, 2021-01-15)"
   sodipodi:docname="logo.svg"
   inkscape:export-filename="./logo.png"
   inkscape:export-xdpi="100"
   inkscape:export-ydpi="100">
  <defs
     id="defs114" />
  <sodipodi:namedview
     id="base"
     pagecolor="#ffffff"
     bordercolor="#666666"
     borderopacity="1.0"
     inkscape:pageopacity="1"
     inkscape:pageshadow="2"
     inkscape:zoom="1.8469919"
     inkscape:cx="164.97755"
     inkscape:cy="48.418276"
     inkscape:document-units="mm"
     inkscape:current-layer="layer1"
     inkscape:document-rotation="0"
     showgrid="false"
     inkscape:window-width="1920"
     inkscape:window-height="1012"
     inkscape:window-x="0"
     inkscape:window-y="0"
     inkscape:window-maximized="1"
     fit-margin-top="2"
     fit-margin-left="2"
     fit-margin-right="2"
     fit-margin-bottom="2" />
  <metadata
     id="metadata117">
    <rdf:RDF>
      <cc:Work
         rdf:about="">
        <dc:format>image/svg+xml</dc:format>
        <dc:type
           rdf:resource="http://purl.org/dc/dcmitype/StillImage" />
        <dc:title></dc:title>
      </cc:Work>
    </rdf:RDF>
  </metadata>
  <g
     inkscape:label="Layer 1"
     inkscape:groupmode="layer"
     id="layer1"
     transform="translate(-46.653036,-127.37783)">
    <g
       id="g85"
       transform="translate(39.632581,-38.116038)">
      <path
         d="m 20.289791,179.54097 h 10.117541 q 4.512519,0 6.919195,2.01084 2.42251,1.995 2.42251,5.70002 0,3.72085 -2.42251,5.73169 -2.406676,1.99501 -6.919195,1.99501 h -4.021683 v 8.2017 h -6.095858 z m 6.095858,4.41751 v 6.60253 h 3.372514 q 1.77334,0 2.739178,-0.855 0.965837,-0.87084 0.965837,-2.45418 0,-1.58334 -0.965837,-2.43834 -0.965838,-0.85501 -2.739178,-0.85501 z"
         style="font-style:normal;font-variant:normal;font-weight:bold;font-stretch:normal;font-size:32.4268px;line-height:1.25;font-family:sans-serif;-inkscape-font-specification:'sans-serif, Bold';font-variant-ligatures:normal;font-variant-caps:normal;font-variant-numeric:normal;font-variant-east-asian:normal;fill:#000000;fill-opacity:1;stroke:none;stroke-width:0.264583"
         id="path2223" />
      <path
         d="M 56.120769,179.54097 H 66.23831 q 4.512519,0 6.919196,2.01084 2.42251,1.995 2.42251,5.70002 0,3.72085 -2.42251,5.73169 -2.406677,1.99501 -6.919196,1.99501 h -4.021683 v 8.2017 h -6.095858 z m 6.095858,4.41751 v 6.60253 h 3.372514 q 1.773341,0 2.739179,-0.855 0.965836,-0.87084 0.965836,-2.45418 0,-1.58334 -0.965836,-2.43834 -0.965837,-0.85501 -2.739179,-0.85501 z"
         style="font-style:normal;font-variant:normal;font-weight:bold;font-stretch:normal;font-size:32.4268px;line-height:1.25;font-family:sans-serif;-inkscape-font-specification:'sans-serif, Bold';font-variant-ligatures:normal;font-variant-caps:normal;font-variant-numeric:normal;font-variant-east-asian:normal;fill:#000000;fill-opacity:1;stroke:none;stroke-width:0.264583"
         id="path2225" />
      <path
         d="m 79.8867,179.54097 h 16.450901 v 4.60751 H 85.982557 v 4.40169 h 9.73754 v 4.60752 h -9.73754 v 5.41502 h 10.703378 v 4.60752 H 79.8867 Z"
         style="font-style:normal;font-variant:normal;font-weight:bold;font-stretch:normal;font-size:32.4268px;line-height:1.25;font-family:sans-serif;-inkscape-font-specification:'sans-serif, Bold';font-variant-ligatures:normal;font-variant-caps:normal;font-variant-numeric:normal;font-variant-east-asian:normal;fill:#000000;fill-opacity:1;stroke:none;stroke-width:0.264583"
         id="path2227" />
      <path
         d="m 110.69849,190.02267 q 1.91585,0 2.73918,-0.7125 0.83917,-0.7125 0.83917,-2.34334 0,-1.61501 -0.83917,-2.31168 -0.82333,-0.69667 -2.73918,-0.69667 h -2.56501 v 6.06419 z m -2.56501,4.21169 v 8.94587 h -6.09585 v -23.63926 h 9.31003 q 4.67086,0 6.84003,1.5675 2.18501,1.56751 2.18501,4.95586 0,2.34334 -1.14,3.84751 -1.12417,1.50417 -3.40418,2.21668 1.25083,0.285 2.2325,1.29834 0.99751,0.9975 2.01085,3.04001 l 3.30918,6.71336 h -6.4917 l -2.88168,-5.87419 q -0.87083,-1.77334 -1.77334,-2.42251 -0.88667,-0.64917 -2.37501,-0.64917 z"
         style="font-style:normal;font-variant:normal;font-weight:bold;font-stretch:normal;font-size:32.4268px;line-height:1.25;font-family:sans-serif;-inkscape-font-specification:'sans-serif, Bold';font-variant-ligatures:normal;font-variant-caps:normal;font-variant-numeric:normal;font-variant-east-asian:normal;fill:#000000;fill-opacity:1;stroke:none;stroke-width:0.264583"
         id="path2229" />
      <g
         id="g2239"
         transform="translate(2.4090272,49.575953)">
        <path
           style="fill:#000000;stroke:none;stroke-width:0.264583px;stroke-linecap:butt;stroke-linejoin:miter;stroke-opacity:1"
           d="m 17.980579,136.56697 c -0.476851,-1.21561 9.934617,-6.83345 10.62213,-6.38851 -4.147652,-4.33579 -3.488951,-7.42528 -1.437093,-9.875 -2.134965,-0.0137 -4.642444,-0.12021 -6.370534,4.67585 -4.134299,0.0803 -4.437171,-3.11951 -4.48854,-6.20362 -1.859141,2.96638 -2.878913,5.02914 -1.495979,9.34664 -4.921996,-1.38523 -5.5668734,2.41507 -7.6020931,4.32371 4.1744251,-2.16864 9.3792941,-2.93932 10.7721091,4.12093 z"
           id="path2231"
           sodipodi:nodetypes="cccccccc" />
        <circle
           style="fill:#000000;stroke:none;stroke-width:0.1;stroke-linecap:round"
           id="circle2233"
           cx="7.4886017"
           cy="132.36996"
           r="0.87717384" />
        <circle
           style="fill:#000000;stroke:none;stroke-width:0.1;stroke-linecap:round"
           id="circle2235"
           cx="16.220198"
           cy="118.79509"
           r="0.87717384" />
        <circle
           style="fill:#000000;stroke:none;stroke-width:0.1;stroke-linecap:round"
           id="circle2237"
           cx="26.696749"
           cy="120.39225"
           r="0.87717384" />
      </g>
      <path
         d="m 50.078877,179.54097 c 0,-1.55844 -6.095858,-1.44086 -6.095858,0 v 23.63926 h 6.095858 z"
         style="font-style:normal;font-variant:normal;font-weight:bold;font-stretch:normal;font-size:32.4268px;line-height:1.25;font-family:sans-serif;-inkscape-font-specification:'sans-serif, Bold';font-variant-ligatures:normal;font-variant-caps:normal;font-variant-numeric:normal;font-variant-east-asian:normal;fill:#000000;fill-opacity:1;stroke:none;stroke-width:0.264583"
         id="path2241"
         sodipodi:nodetypes="ssccs" />
      <path
         id="path2243"
         style="fill:#ffffff;stroke:none;stroke-width:0.1;stroke-linecap:round"
         d="m 51.124975,184.33936 c -2.760939,-1.42504 -5.456589,-1.18336 -8.115352,0 v 1.45029 c 2.642276,-1.3158 5.348351,-1.29574 8.115352,0 z"
         sodipodi:nodetypes="ccccc" />
      <path
         style="fill:none;stroke:#ffffff;stroke-width:1;stroke-linecap:butt;stroke-linejoin:miter;stroke-opacity:1"
         d="m 48.277649,178.01214 v 27.0594"
         id="path2245"
         sodipodi:nodetypes="cc" />
      <path
         style="fill:none;stroke:#ffffff;stroke-width:1;stroke-linecap:butt;stroke-linejoin:miter;stroke-opacity:1"
         d="m 45.736606,177.35346 v 27.71808"
         id="path2249"
         sodipodi:nodetypes="cc" />
      <rect
         style="fill:#ffffff;stroke:none;stroke-width:0.1;stroke-linecap:round"
         id="rect2251"
         width="3.0975902"
         height="6.8333788"
         x="-48.726681"
         y="197.01622"
         transform="scale(-1,1)" />
      <rect
         style="fill:#ffffff;stroke:none;stroke-width:0.0999999;stroke-linecap:round"
         id="rect2255"
         width="2.0844173"
         height="9.6287899"
         x="-45.551418"
         y="194.22081"
         transform="scale(-1,1)" />
      <path
         id="path2257"
         style="fill:#ffffff;stroke:none;stroke-width:0.0999995;stroke-linecap:round"
         d="m 19.97109,185.20282 10.735834,-6.19836 c 0.21219,-0.12249 0.502502,-0.0141 0.650911,0.24289 l 0.11208,0.19413 c 0.148409,0.25705 0.107331,0.58244 -0.115118,0.68513 -3.765389,1.73827 -7.326841,3.8345 -10.735835,6.19834 -0.201345,0.13962 -0.502495,0.0141 -0.65091,-0.24287 l -0.112081,-0.19413 c -0.148409,-0.25704 -0.09706,-0.56263 0.115117,-0.68513 z"
         sodipodi:nodetypes="ssssssssss" />
    </g>
  </g>
</svg>
